<svg width="153" height="120" viewBox="0 0 153 120" fill="none" xmlns="http://www.w3.org/2000/svg">
<circle cx="76.5" cy="52" r="52" fill="#EAECF0"/>
<g filter="url(#filter0_dd_4653_74382)">
<path d="M78.1 16C67.3273 16 57.7978 21.3233 51.9987 29.4829C50.105 29.0363 48.1301 28.8 46.1 28.8C31.9615 28.8 20.5 40.2615 20.5 54.4C20.5 68.5385 31.9615 80 46.1 80L110.1 80C122.471 80 132.5 69.9712 132.5 57.6C132.5 45.2288 122.471 35.2 110.1 35.2C109.221 35.2 108.354 35.2506 107.502 35.349C102.598 23.9677 91.2797 16 78.1 16Z" fill="white"/>
<ellipse cx="46.1" cy="54.4008" rx="25.6" ry="25.6" fill="url(#paint0_linear_4653_74382)"/>
<circle cx="78.1016" cy="48" r="32" fill="url(#paint1_linear_4653_74382)"/>
<ellipse cx="110.099" cy="57.5992" rx="22.4" ry="22.4" fill="url(#paint2_linear_4653_74382)"/>
</g>
<circle cx="21.5" cy="19" r="5" fill="#EAECF0"/>
<circle cx="18.5" cy="109" r="7" fill="#EAECF0"/>
<circle cx="145.5" cy="35" r="7" fill="#EAECF0"/>
<circle cx="134.5" cy="8" r="4" fill="#EAECF0"/>
<g filter="url(#filter1_b_4653_74382)">
<rect x="52.5" y="62" width="48" height="48" rx="24" fill="#3E4A5E" fill-opacity="0.4"/>
<path d="M77.4989 76L68.5923 86.6879C68.2435 87.1064 68.0691 87.3157 68.0665 87.4925C68.0641 87.6461 68.1326 87.7923 68.2521 87.8889C68.3896 88 68.6621 88 69.2069 88H76.4989L75.4989 96L84.4054 85.3121C84.7542 84.8936 84.9286 84.6843 84.9313 84.5075C84.9336 84.3539 84.8652 84.2077 84.7456 84.1111C84.6081 84 84.3357 84 83.7909 84H76.4989L77.4989 76Z" stroke="white" stroke-width="2" stroke-linecap="round" stroke-linejoin="round"/>
</g>
<defs>
<filter id="filter0_dd_4653_74382" x="0.5" y="16" width="152" height="104" filterUnits="userSpaceOnUse" color-interpolation-filters="sRGB">
<feFlood flood-opacity="0" result="BackgroundImageFix"/>
<feColorMatrix in="SourceAlpha" type="matrix" values="0 0 0 0 0 0 0 0 0 0 0 0 0 0 0 0 0 0 127 0" result="hardAlpha"/>
<feMorphology radius="4" operator="erode" in="SourceAlpha" result="effect1_dropShadow_4653_74382"/>
<feOffset dy="8"/>
<feGaussianBlur stdDeviation="4"/>
<feColorMatrix type="matrix" values="0 0 0 0 0.0627451 0 0 0 0 0.0941176 0 0 0 0 0.156863 0 0 0 0.03 0"/>
<feBlend mode="normal" in2="BackgroundImageFix" result="effect1_dropShadow_4653_74382"/>
<feColorMatrix in="SourceAlpha" type="matrix" values="0 0 0 0 0 0 0 0 0 0 0 0 0 0 0 0 0 0 127 0" result="hardAlpha"/>
<feMorphology radius="4" operator="erode" in="SourceAlpha" result="effect2_dropShadow_4653_74382"/>
<feOffset dy="20"/>
<feGaussianBlur stdDeviation="12"/>
<feColorMatrix type="matrix" values="0 0 0 0 0.0627451 0 0 0 0 0.0941176 0 0 0 0 0.156863 0 0 0 0.08 0"/>
<feBlend mode="normal" in2="effect1_dropShadow_4653_74382" result="effect2_dropShadow_4653_74382"/>
<feBlend mode="normal" in="SourceGraphic" in2="effect2_dropShadow_4653_74382" result="shape"/>
</filter>
<filter id="filter1_b_4653_74382" x="44.5" y="54" width="64" height="64" filterUnits="userSpaceOnUse" color-interpolation-filters="sRGB">
<feFlood flood-opacity="0" result="BackgroundImageFix"/>
<feGaussianBlur in="BackgroundImageFix" stdDeviation="4"/>
<feComposite in2="SourceAlpha" operator="in" result="effect1_backgroundBlur_4653_74382"/>
<feBlend mode="normal" in="SourceGraphic" in2="effect1_backgroundBlur_4653_74382" result="shape"/>
</filter>
<linearGradient id="paint0_linear_4653_74382" x1="26.4429" y1="37.4865" x2="71.7" y2="80.0007" gradientUnits="userSpaceOnUse">
<stop stop-color="#D0D5DD"/>
<stop offset="0.350715" stop-color="white" stop-opacity="0"/>
</linearGradient>
<linearGradient id="paint1_linear_4653_74382" x1="53.5301" y1="26.8571" x2="110.102" y2="80" gradientUnits="userSpaceOnUse">
<stop stop-color="#D0D5DD"/>
<stop offset="0.350715" stop-color="white" stop-opacity="0"/>
</linearGradient>
<linearGradient id="paint2_linear_4653_74382" x1="92.8992" y1="42.7992" x2="132.499" y2="79.9992" gradientUnits="userSpaceOnUse">
<stop stop-color="#D0D5DD"/>
<stop offset="0.350715" stop-color="white" stop-opacity="0"/>
</linearGradient>
</defs>
</svg>
